<svg xmlns="http://www.w3.org/2000/svg" width="20" height="20" viewBox="0 0 24 24" fill="none">
  <g>
<g>
<path d="M16.2168 0H4.26759C1.91185 0.00284061 0.00284061 1.91185 0 4.26759V16.2168C0.00284061 18.5725 1.91185 20.4816 4.26759 20.4844H16.2168C18.5725 20.4816 20.4816 18.5725 20.4844 16.2168V4.26759C20.4816 1.91185 18.5725 0.00284061 16.2168 0ZM17.0703 6.89555L9.17188 14.794C8.50538 15.4608 7.42455 15.461 6.75776 14.7945C6.7576 14.7943 6.75744 14.7942 6.75728 14.794L3.41405 11.4516C3.08006 11.1177 3.08006 10.5762 3.41405 10.2422C3.74804 9.90828 4.28952 9.90824 4.62347 10.2422L7.96582 13.5846L15.8651 5.68614C16.1991 5.35334 16.7396 5.3543 17.0724 5.68826C17.4052 6.02225 17.4043 6.56276 17.0703 6.89555Z" fill="currentColor"/>
</g>
</g>
</svg>
