<svg xmlns="http://www.w3.org/2000/svg" width="20" height="20" viewBox="0 -0.4 20 20.4" fill="none">
  <g>
<g>
<path d="M10 12.4932C8.6193 12.4932 7.5 13.6125 7.5 14.9932V19.9932H12.5V14.9932C12.5 13.6125 11.3807 12.4932 10 12.4932Z" fill="currentColor"/>
<g>
<path d="M14.1667 14.9937V19.9937H17.5C18.8807 19.9937 20 18.8744 20 17.4937V9.89283C20.0002 9.4599 19.832 9.04389 19.5308 8.73283L12.4492 1.07697C11.1996 -0.274982 9.09074 -0.35799 7.73879 0.891541C7.67457 0.950916 7.6127 1.01275 7.55336 1.07697L0.48418 8.73033C0.173945 9.04267 -0.000117128 9.4651 5.9134e-08 9.90533V17.4937C5.9134e-08 18.8744 1.1193 19.9937 2.5 19.9937H5.83332V14.9937C5.84891 12.7213 7.68355 10.8657 9.89867 10.8122C12.1879 10.757 14.1492 12.6442 14.1667 14.9937Z" fill="currentColor"/>
<path d="M10 12.4932C8.6193 12.4932 7.5 13.6125 7.5 14.9932V19.9932H12.5V14.9932C12.5 13.6125 11.3807 12.4932 10 12.4932Z" fill="currentColor"/>
</g>
</g>
</g>
</svg>
