<svg xmlns="http://www.w3.org/2000/svg" width="20" height="20" viewBox="0 0 24 24" fill="none">
  <g>
<g>
<path d="M11.538 14.388L8.81999 17.106C7.16186 18.7198 4.50948 18.6838 2.89568 17.0258C1.31302 15.3997 1.31266 12.8091 2.89486 11.1825L5.61286 8.46205C5.93821 8.13646 5.93802 7.60879 5.61243 7.28344C5.28685 6.95809 4.75917 6.95828 4.43382 7.28387L1.71664 10.0044C-0.569772 12.2919 -0.568834 15.9999 1.71871 18.2863C4.00625 20.5728 7.71422 20.5718 10.0007 18.2842L12.7187 15.5662C13.0384 15.2352 13.0292 14.7077 12.6982 14.3881C12.3753 14.0762 11.8634 14.0762 11.5405 14.3881H11.538V14.388Z" fill="currentColor"/>
<path d="M18.2864 1.71781C17.1912 0.615086 15.7002 -0.00335776 14.1461 0.000508978C12.5928 -0.00363116 11.1023 0.613523 10.0065 1.71449L7.28436 4.43331C6.95877 4.75866 6.95857 5.28633 7.28393 5.61192C7.60928 5.93751 8.13695 5.9377 8.46254 5.61235L11.183 2.89435C11.9666 2.10608 13.0329 1.66414 14.1444 1.66699C16.4582 1.66777 18.3333 3.54408 18.3325 5.85787C18.3321 6.96836 17.8908 8.03332 17.1057 8.81866L14.3877 11.5367C14.0621 11.8622 14.0621 12.3901 14.3877 12.7157C14.7133 13.0413 15.2411 13.0413 15.5667 12.7157L18.2847 9.99934C20.5679 7.71117 20.5687 4.00684 18.2864 1.71781Z" fill="currentColor"/>
<path d="M11.911 6.91064L6.9116 11.91C6.58058 12.2297 6.57145 12.7572 6.89113 13.0882C7.21082 13.4192 7.73834 13.4284 8.06931 13.1087C8.07627 13.102 8.08306 13.0952 8.08978 13.0882L13.0892 8.08882C13.4089 7.7578 13.3997 7.23032 13.0687 6.91064C12.7458 6.5988 12.2339 6.5988 11.911 6.91064Z" fill="currentColor"/>
</g>
</g>
</svg>
