<svg xmlns="http://www.w3.org/2000/svg" width="20" height="20" viewBox="0 0 24 24" fill="none">
  <g>
<g>
<path d="M19.7491 1.43213L4.32422 16.8529C4.65769 17.0154 5.02345 17.1008 5.3944 17.1027H8.03613C8.25713 17.1021 8.46915 17.19 8.62495 17.3468L10.0566 18.7776C10.833 19.5593 11.8889 19.9993 12.9906 20.0002C13.4455 19.9997 13.8973 19.9252 14.3282 19.7795C15.8136 19.2925 16.894 18.0048 17.1157 16.4573L19.9298 3.09031C20.0642 2.53334 20.0003 1.94702 19.7491 1.43213Z" fill="currentColor"/>
<path d="M16.9341 0.064502L3.5996 2.87367C1.32121 3.18669 -0.272054 5.28745 0.0409612 7.56585C0.164598 8.46562 0.578997 9.30035 1.22103 9.94274L2.65185 11.3736C2.80824 11.5299 2.89604 11.742 2.89588 11.9632V14.6049C2.8978 14.9759 2.98322 15.3417 3.14573 15.6751L18.5681 0.25025C18.0613 0.00118071 17.4838 -0.0644439 16.9341 0.064502Z" fill="currentColor"/>
</g>
</g>
</svg>
