<svg xmlns="http://www.w3.org/2000/svg" width="20" height="20" viewBox="0 0 24 24" fill="none">
  <g>
<path d="M23.8352 8.7942C23.6307 8.1431 23.222 7.57511 22.6697 7.17423C22.1173 6.77335 21.4507 6.56087 20.7682 6.5682H16.3992L15.0722 2.4322C14.8635 1.78116 14.4535 1.21321 13.9012 0.810264C13.3489 0.407315 12.6829 0.190186 11.9992 0.190186C11.3155 0.190186 10.6495 0.407315 10.0972 0.810264C9.54495 1.21321 9.13489 1.78116 8.92622 2.4322L7.59922 6.5682H3.23022C2.54996 6.56917 1.88741 6.78508 1.3372 7.1851C0.786984 7.58512 0.377257 8.14879 0.166538 8.79559C-0.0441816 9.44238 -0.0451143 10.1392 0.163873 10.7866C0.37286 11.4339 0.781077 11.9987 1.33022 12.4002L4.88622 15.0002L3.53422 19.1872C3.31573 19.8366 3.31296 20.5392 3.52633 21.1903C3.73969 21.8414 4.15776 22.4061 4.71822 22.8002C5.26907 23.207 5.93661 23.4249 6.62137 23.4215C7.30613 23.418 7.97146 23.1935 8.51822 22.7812L11.9992 20.2192L15.4812 22.7782C16.0311 23.1827 16.695 23.4023 17.3776 23.4057C18.0602 23.409 18.7262 23.1958 19.28 22.7967C19.8338 22.3976 20.2467 21.8332 20.4595 21.1847C20.6723 20.5361 20.6739 19.8368 20.4642 19.1872L19.1122 15.0002L22.6722 12.4002C23.2276 12.0037 23.6406 11.439 23.8501 10.7895C24.0596 10.1401 24.0543 9.44045 23.8352 8.7942ZM21.4922 10.7852L17.3482 13.8142C17.178 13.9384 17.0514 14.1131 16.9864 14.3135C16.9213 14.5139 16.9213 14.7298 16.9862 14.9302L18.5612 19.8002C18.6409 20.0472 18.6402 20.3131 18.5593 20.5597C18.4783 20.8063 18.3212 21.0209 18.1106 21.1726C17.9 21.3243 17.6468 21.4053 17.3872 21.404C17.1277 21.4026 16.8753 21.319 16.6662 21.1652L12.5912 18.1652C12.4196 18.0391 12.2122 17.9711 11.9992 17.9711C11.7863 17.9711 11.5789 18.0391 11.4072 18.1652L7.33222 21.1652C7.1233 21.3211 6.87015 21.4064 6.60948 21.4088C6.34881 21.4112 6.09416 21.3305 5.88245 21.1784C5.67073 21.0263 5.51296 20.8107 5.43201 20.5629C5.35106 20.3151 5.35113 20.048 5.43222 19.8002L7.01222 14.9302C7.07713 14.7298 7.07709 14.5139 7.01208 14.3135C6.94707 14.1131 6.82043 13.9384 6.65022 13.8142L2.50622 10.7852C2.29752 10.6324 2.14245 10.4175 2.06316 10.1713C1.98386 9.92514 1.9844 9.66018 2.0647 9.4143C2.145 9.16842 2.30094 8.9542 2.51026 8.80225C2.71958 8.6503 2.97156 8.56838 3.23022 8.5682H8.33022C8.54193 8.56819 8.74818 8.50099 8.91926 8.37627C9.09035 8.25156 9.21743 8.07576 9.28222 7.8742L10.8322 3.0432C10.9118 2.79598 11.0677 2.58039 11.2776 2.42745C11.4875 2.27451 11.7405 2.1921 12.0002 2.1921C12.2599 2.1921 12.5129 2.27451 12.7228 2.42745C12.9327 2.58039 13.0887 2.79598 13.1682 3.0432L14.7182 7.8742C14.783 8.07576 14.9101 8.25156 15.0812 8.37627C15.2523 8.50099 15.4585 8.56819 15.6702 8.5682H20.7702C21.0289 8.56838 21.2809 8.6503 21.4902 8.80225C21.6995 8.9542 21.8554 9.16842 21.9357 9.4143C22.016 9.66018 22.0166 9.92514 21.9373 10.1713C21.858 10.4175 21.7029 10.6324 21.4942 10.7852H21.4922Z" fill="currentColor"/>
</g>
</svg>
